<?xml version="1.0" encoding="utf-8"?>
<!-- Generator: Adobe Illustrator 19.0.0, SVG Export Plug-In . SVG Version: 6.00 Build 0)  -->
<svg version="1.1" id="layer" xmlns="http://www.w3.org/2000/svg" xmlns:xlink="http://www.w3.org/1999/xlink" x="0px" y="0px"
	 viewBox="-153 -46 652 652" style="enable-background:new -153 -46 652 652;" xml:space="preserve">
<g>
	<polygon points="-48.3,201.4 -78.5,277.9 -109,201.4 -131.2,201.4 -131.2,346.8 -106.5,346.8 -106.5,257.1 -85.6,315.8 
		-71.9,315.8 -50.5,256.2 -50.5,346.8 -25.9,346.8 -25.9,201.4 	"/>
	<path d="M25.4,346.8v-8.1c-2,2.4-5.1,5.3-7.9,6.8c-3.3,1.8-7.5,3.1-11.6,3.1c-9.5,0-15.8-2.6-21.1-8.3c-4.6-4.9-6.7-10.8-6.7-23.2
		v-77.8H1.4v77.4c0,8.3,5.1,12.5,11.4,12.5s11.4-4.1,11.4-12.5v-77.4h23.3v107.7H25.4z M111.3,339.8c-7.1,6.6-15.4,8.8-25.4,8.8
		c-9.9,0-19.7-3.1-25.6-8.8c-6.9-6.6-10.4-14.1-10.4-24.3h23.1c0,4.3,1.4,7.7,4,10.2c2.2,2.2,5.7,3.3,8.8,3.3c3.7,0,6.3-0.8,9-3.1
		c2.2-1.8,3.3-5.1,3.3-8.6c0-3.1-0.6-5.5-2.4-7.9c-1.8-2.4-4.9-4.5-9-6.1L71.4,297c-7.9-3.3-13.6-7.6-17-12.5
		c-2.6-3.9-3.7-8.8-3.7-14.7c0-10.5,4-17.1,10.1-23.1c6.3-5.9,15.4-9,25.1-9c9.7,0,18.5,2.9,24.4,8.1c6.1,5.5,9.9,13.1,9.9,23.9
		H97.4c0-4.6-1.1-7.6-3.3-9.8c-2.2-2.2-5.1-3.3-8.1-3.3c-3.5,0-6.7,1.3-8.6,3.1c-2.2,2-3.3,4.9-3.3,8.1c0,2.6,0.4,4.5,1.8,6.3
		c1.6,2.2,4.6,4.5,8.6,6.1l15.4,6.1c7.9,3.3,13.2,6.8,17,11.8c3.1,4.1,4.9,10.2,4.9,17.5C121.7,326.5,117.2,334.2,111.3,339.8z"/>
	<rect x="123.7" y="237.5" width="23.3" height="109.4"/>
	<path d="M210.2,340.5c-5.9,5.5-14.4,7.9-24.6,7.9c-11,0-20.7-2.6-27.6-11.4c-7.3-9.2-8.1-25.8-8.1-44.2c0-18.2,0.8-34.8,8.1-44.2
		c6.9-8.8,16.5-11.2,27.6-11.2c9.9,0,17.6,1.6,24.4,7.6c7.3,6.6,9.7,16.4,10.4,25.6h-23.1c-0.2-3.3-0.6-7.2-3.1-10
		c-1.8-2.4-4.6-3.9-8.6-3.9c-3.5,0-7.1,1.6-9,4.5c-3.1,4.9-3.3,15.7-3.3,31.7c0,16,0.2,26.7,3.3,31.9c2,2.9,5.5,4.3,9,4.3
		c4,0,6.9-1.5,8.6-3.7c2.4-2.9,2.9-6.6,3.1-10.2h23.1C219.7,325.4,216.6,334.6,210.2,340.5"/>
	<polygon points="197.2,201.4 197.2,222.1 223.4,222.1 223.4,346.8 248.1,346.8 248.1,222.1 274.6,222.1 274.6,201.4 	"/>
	<path d="M295.7,261.1c-2-2.4-4.6-4.3-8.8-4.3c-4.1,0-6.9,1.8-8.8,4.3c-2.6,3.1-3.5,11.2-3.5,22.3H299
		C299,272.3,298.3,264.1,295.7,261.1z M274.6,299.3c0,12.3,0.6,21.7,3.5,25.6c1.8,2.4,4.9,4.3,9,4.3c4,0,6.7-1.6,8.8-4.3
		c1.8-2,2.9-6.3,2.9-9.6h23.1c-0.4,9-3.1,18-9.7,24.7c-5.9,6.1-15,8.6-25.1,8.6c-10.8,0-18.1-2.2-25.1-8.8
		c-9.9-9.2-10.8-27.2-10.8-46.8c0-19.7,0.8-37.6,10.8-46.8c7.1-6.6,15.4-8.6,24.9-8.6c9.7,0,18.1,1.8,24.9,8.6
		c11.2,11,10.4,32.9,10.6,53.1H274.6z M385.7,340.5c-5.9,5.5-14.4,7.9-24.6,7.9c-11,0-20.7-2.6-27.6-11.4
		c-7.3-9.2-8.1-25.8-8.1-44.2c0-18.2,0.8-34.8,8.1-44.2c6.9-8.8,16.5-11.2,27.6-11.2c9.9,0,17.6,1.6,24.4,7.6
		c7.3,6.6,9.7,16.4,10.4,25.6h-23.1c-0.2-3.3-0.6-7.2-3.1-10c-1.8-2.4-4.6-3.9-8.6-3.9c-3.5,0-7.1,1.6-9,4.5
		c-3.1,4.9-3.3,15.7-3.3,31.7c0,16,0.2,26.7,3.3,31.9c2,2.9,5.5,4.3,9,4.3c4,0,6.9-1.5,8.6-3.7c2.4-2.9,2.9-6.6,3.1-10.2h23.1
		C395.2,325.4,392.1,334.6,385.7,340.5z M445.4,346.8v-77.4c0-8.3-5.1-12.5-11.4-12.5s-11.4,4.1-11.4,12.5v77.4h-23.3V201.4h23.3
		v44.7c1.8-2.2,4.4-4.5,6.9-5.7c3.3-1.8,7.5-2.9,11.6-2.9c9.5,0,15.8,2.6,21.1,8.3c4.6,4.9,6.7,10.8,6.7,23.2v77.8H445.4z"/>
	<rect x="123.7" y="201.4" width="23.3" height="24"/>
</g>
</svg>
