<?xml version="1.0" encoding="utf-8"?>
<!-- Generator: Adobe Illustrator 19.2.1, SVG Export Plug-In . SVG Version: 6.00 Build 0)  -->
<svg version="1.1" id="layer" xmlns="http://www.w3.org/2000/svg" xmlns:xlink="http://www.w3.org/1999/xlink" x="0px" y="0px"
	 viewBox="0 0 652 652" style="enable-background:new 0 0 652 652;" xml:space="preserve">
<style type="text/css">
	.st0{fill:#ED1C24;}
	.st1{fill:#FFFFFF;}
</style>
<path class="st0" d="M555,442.7h-0.4H388c20.9-81.4,44.1-160.7,65.9-241.4h166.6L555,442.7z M433.2,201.1H269.1l-47.5,178.3
	l-17,63.2H369L433.2,201.1z M234.9,261.9l-49.4,180.8H20.5l65.3-241.4h0.6h164.7L234.9,261.9z"/>
<path class="st1" d="M193.5,236.6l1.5,2.7c-3.5,14.4-4.8,29.7-10.7,43.3c-0.8,0.6-1.7,0.8-2.9,0.8c-4.6-7.1-0.4-17.4-2.3-26.2
	c-1.9-8.6-4-19.7-14.2-22.6c-7.7-3.3-17.4-0.4-24.1,3.6c-9,6.9-14.2,16.7-13,27.8c3.8,28.4,31.6,47.1,40.4,73.4
	c8.1,23,1.7,50.4-16.5,67.4c-13.6,14-33.5,18.4-52.3,14c-9-3.1-18-5.2-24.3-13.2c0-16.5,4.2-32,7.9-47.1c1.1-1,2.1-2.5,3.8-1.9
	c3.5,2.1,2.7,9.8,2.3,14.2c0,15.3-0.6,32,14,40c7.5,4.6,19.3,2.9,26.4-1.5c13.6-10.3,18-25.7,15.7-42.7
	c-9.8-38.9-57.5-69.5-34.5-114.4c9.6-16.7,27.4-28.2,47.1-27.8C170.7,227.3,182.8,229.9,193.5,236.6"/>
<path class="st1" d="M351.2,349.3c-9,24.7-16.3,58.2-47.5,65.5c-9.2,0.6-17.6-2.9-22.2-10.9c-12.3-22.4-7.1-53.8-2.9-78.1
	c6.3-27.6,12.4-55.5,30.1-78.3c8.8-10.3,20.7-16.3,33.9-13c5.4,1.9,11.5,6.1,14.2,11.7C370,279,358.5,317.3,351.2,349.3
	 M376.1,255.1c-5.5-8.2-11.1-17.4-20.1-22.6c-15.3-10.9-37.7-6.1-52.3,2.5c-42.9,28.7-57.6,78.7-54.2,128.5
	c3.1,23.9,17.2,50.5,41.9,58c27.8,6.3,50.7-11.3,68.3-32C385.3,353.1,397.5,297.4,376.1,255.1"/>
<path class="st1" d="M561.7,239.9c-1.9,14.4-4.8,29.3-9,43.3c-0.9,1.3-3.2,2.9-4.6,1.1c-2.7-7.5-0.6-17-1.9-25.1
	c-1.7-8.2-3.1-17.4-11.5-21.6c-8.2-3.6-17.4-3.1-24.9,1.1c-11.1,7.5-16.5,20.3-14,33.7c12.1,35.2,53.1,60,43.3,103.2
	c-5.2,20.9-22,42.7-44.4,47.5c-18.2,2.7-36.4-0.6-50.2-11.7c-4-8.8,1-18.4,1.7-27.6c2.5-7.5,1.5-17.6,7.1-23.2
	c2.9-0.4,4,2.3,4.4,4.4c0.6,18.6-3.5,41,14.9,50.2c9.2,4.4,21.6,2.1,28.9-5c10.9-9.8,13.8-24.1,12.1-38.3
	c-8.2-39.1-55.7-66.3-37.7-111.5c7.1-16.7,24.1-30.6,42.1-32C534.3,227.8,549.7,230.3,561.7,239.9"/>
</svg>
